<svg width="1155" height="332" viewBox="0 0 1155 332" fill="none" xmlns="http://www.w3.org/2000/svg">
<path d="M352.595 270.776C340.903 270.776 329.582 269 318.63 265.448C307.827 261.748 299.317 257.013 293.102 251.241L301.315 233.926C307.235 239.253 314.783 243.619 323.958 247.023C333.282 250.279 342.827 251.907 352.595 251.907C365.47 251.907 375.09 249.761 381.453 245.469C387.817 241.029 390.999 235.184 390.999 227.932C390.999 222.604 389.223 218.312 385.671 215.057C382.267 211.653 377.976 209.063 372.796 207.287C367.764 205.511 360.586 203.513 351.263 201.293C339.571 198.481 330.1 195.67 322.848 192.858C315.744 190.046 309.603 185.754 304.423 179.982C299.391 174.063 296.875 166.145 296.875 156.229C296.875 147.942 299.021 140.468 303.313 133.808C307.753 127.149 314.413 121.821 323.292 117.825C332.172 113.829 343.197 111.832 356.369 111.832C365.544 111.832 374.572 113.015 383.451 115.383C392.331 117.751 399.952 121.155 406.316 125.595L398.991 143.354C392.479 139.21 385.523 136.102 378.124 134.03C370.724 131.811 363.472 130.701 356.369 130.701C343.789 130.701 334.318 132.995 327.954 137.582C321.738 142.17 318.63 148.09 318.63 155.341C318.63 160.669 320.406 165.035 323.958 168.439C327.51 171.695 331.876 174.285 337.055 176.208C342.383 177.984 349.561 179.908 358.588 181.98C370.28 184.792 379.677 187.604 386.781 190.416C393.885 193.228 399.952 197.519 404.984 203.291C410.164 209.063 412.754 216.832 412.754 226.6C412.754 234.74 410.534 242.213 406.094 249.021C401.654 255.681 394.921 261.008 385.893 265.004C376.866 268.852 365.766 270.776 352.595 270.776ZM499.573 262.118C496.465 264.782 492.617 266.854 488.029 268.334C483.441 269.666 478.706 270.332 473.822 270.332C461.982 270.332 452.807 267.15 446.295 260.786C439.783 254.423 436.528 245.321 436.528 233.482V125.595H457.839V151.346H491.581V168.883H457.839V232.594C457.839 238.957 459.392 243.841 462.5 247.245C465.756 250.649 470.344 252.351 476.264 252.351C482.775 252.351 488.325 250.501 492.913 246.801L499.573 262.118ZM627.872 151.346V269H607.449V250.353C602.713 256.865 596.719 261.822 589.468 265.226C582.216 268.63 574.225 270.332 565.493 270.332C554.097 270.332 543.886 267.816 534.858 262.784C525.831 257.753 518.727 250.723 513.547 241.695C508.516 232.52 506 222.012 506 210.173C506 198.333 508.516 187.9 513.547 178.872C518.727 169.845 525.831 162.815 534.858 157.783C543.886 152.752 554.097 150.236 565.493 150.236C573.929 150.236 581.698 151.864 588.802 155.119C595.905 158.227 601.825 162.889 606.561 169.105V151.346H627.872ZM567.269 251.685C574.669 251.685 581.402 249.983 587.47 246.579C593.538 243.027 598.273 238.143 601.677 231.928C605.081 225.564 606.783 218.312 606.783 210.173C606.783 202.033 605.081 194.856 601.677 188.64C598.273 182.276 593.538 177.392 587.47 173.989C581.402 170.585 574.669 168.883 567.269 168.883C559.721 168.883 552.914 170.585 546.846 173.989C540.926 177.392 536.19 182.276 532.639 188.64C529.235 194.856 527.533 202.033 527.533 210.173C527.533 218.312 529.235 225.564 532.639 231.928C536.19 238.143 540.926 243.027 546.846 246.579C552.914 249.983 559.721 251.685 567.269 251.685ZM684.177 171.103C687.877 164.295 693.353 159.115 700.605 155.563C707.856 152.012 716.662 150.236 727.021 150.236V170.881C725.838 170.733 724.21 170.659 722.138 170.659C710.594 170.659 701.493 174.137 694.833 181.092C688.321 187.9 685.065 197.667 685.065 210.395V269H663.754V151.346H684.177V171.103ZM784.588 270.332C773.192 270.332 764.387 267.224 758.171 261.008C751.955 254.645 748.848 245.765 748.848 234.37V104.284H770.158V232.594C770.158 238.957 771.638 243.841 774.598 247.245C777.706 250.649 782.294 252.351 788.362 252.351C792.061 252.351 795.539 251.611 798.795 250.131L799.905 267.668C795.021 269.444 789.916 270.332 784.588 270.332ZM815.73 151.346H837.041V269H815.73V151.346ZM826.386 128.703C822.242 128.703 818.764 127.371 815.952 124.707C813.289 122.043 811.957 118.787 811.957 114.939C811.957 111.092 813.289 107.836 815.952 105.172C818.764 102.36 822.242 100.954 826.386 100.954C830.53 100.954 833.934 102.286 836.597 104.95C839.409 107.466 840.815 110.648 840.815 114.495C840.815 118.491 839.409 121.895 836.597 124.707C833.934 127.371 830.53 128.703 826.386 128.703ZM936.115 150.236C951.062 150.236 962.901 154.601 971.633 163.333C980.512 171.917 984.952 184.57 984.952 201.293V269H963.641V203.735C963.641 192.34 960.903 183.756 955.428 177.984C949.952 172.213 942.108 169.327 931.897 169.327C920.353 169.327 911.252 172.731 904.592 179.538C897.932 186.198 894.603 195.817 894.603 208.397V269H873.292V151.346H893.715V169.105C898.006 163.037 903.778 158.375 911.03 155.119C918.429 151.864 926.791 150.236 936.115 150.236ZM1133.15 151.346V253.017C1133.15 273.588 1128.05 288.757 1117.83 298.525C1107.62 308.44 1092.38 313.398 1072.1 313.398C1061 313.398 1050.42 311.844 1040.36 308.736C1030.3 305.776 1022.16 301.484 1015.94 295.861L1026.15 279.434C1031.63 284.169 1038.36 287.869 1046.35 290.533C1054.49 293.345 1062.85 294.751 1071.44 294.751C1085.2 294.751 1095.34 291.495 1101.85 284.983C1108.51 278.472 1111.84 268.556 1111.84 255.237V245.913C1106.81 251.981 1100.59 256.569 1093.19 259.676C1085.94 262.636 1078.02 264.116 1069.44 264.116C1058.19 264.116 1047.98 261.748 1038.81 257.013C1029.78 252.129 1022.67 245.395 1017.49 236.812C1012.31 228.08 1009.72 218.164 1009.72 207.065C1009.72 195.965 1012.31 186.124 1017.49 177.54C1022.67 168.809 1029.78 162.075 1038.81 157.339C1047.98 152.604 1058.19 150.236 1069.44 150.236C1078.32 150.236 1086.53 151.864 1094.08 155.119C1101.78 158.375 1108.07 163.185 1112.95 169.549V151.346H1133.15ZM1071.88 245.469C1079.58 245.469 1086.46 243.841 1092.53 240.585C1098.74 237.33 1103.55 232.816 1106.96 227.044C1110.51 221.124 1112.28 214.465 1112.28 207.065C1112.28 195.67 1108.51 186.494 1100.96 179.538C1093.41 172.435 1083.72 168.883 1071.88 168.883C1059.89 168.883 1050.13 172.435 1042.58 179.538C1035.03 186.494 1031.26 195.67 1031.26 207.065C1031.26 214.465 1032.96 221.124 1036.36 227.044C1039.92 232.816 1044.73 237.33 1050.79 240.585C1057.01 243.841 1064.04 245.469 1071.88 245.469Z" fill="#2c2c2c"/>
<path d="M3.54571 321.153C2.37058 324.748 6.37937 327.815 9.54172 325.741L106.335 262.247C107.667 261.373 109.391 261.373 110.723 262.247L207.458 325.738C210.62 327.813 214.63 324.746 213.456 321.151L112.33 11.6344C111.129 7.95773 105.928 7.95731 104.726 11.6338L3.54571 321.153Z" stroke="#2c2c2c" stroke-width="4"/>
<mask id="mask0_8_2" style="mask-type:alpha" maskUnits="userSpaceOnUse" x="3" y="8" width="211" height="319">
<path d="M3.54571 321.153C2.37058 324.748 6.37937 327.815 9.54172 325.741L106.335 262.247C107.667 261.373 109.391 261.373 110.723 262.247L207.458 325.738C210.62 327.813 214.63 324.746 213.456 321.151L112.33 11.6344C111.129 7.95773 105.928 7.95731 104.726 11.6338L3.54571 321.153Z" fill="#C4C4C4"/>
</mask>
<g mask="url(#mask0_8_2)">
<path d="M109.697 428.613C117.532 428.201 124.301 422.999 126.718 415.534L145.206 358.426C163.692 341.771 221.188 312.088 303.289 326.593C399.862 343.656 194.446 243.782 157.187 243.638C154.356 243.627 150.75 243.056 148.907 240.907L112.749 198.745C111.559 197.358 109.415 197.348 108.213 198.724L72.06 240.097C70.1847 242.243 66.5285 242.774 63.6788 242.734C26.2811 242.211 -180.586 337.79 -83.7797 322.702C-1.44278 309.87 55.53 340.718 73.7243 357.746L93.5301 417.571C95.8153 424.474 102.435 428.996 109.697 428.613Z" fill="#2c2c2c"/>
</g>
<path d="M67.0427 226.229C67.7953 226.229 68.4669 225.756 68.7205 225.048L70.8145 219.197C72.6773 217.583 78.359 214.839 86.1838 216.778C95.2284 219.018 76.7912 208.054 72.749 207.468C72.373 207.413 71.8778 207.276 71.6558 206.967L68.2976 202.302L64.5089 206.476C64.2516 206.759 63.7387 206.837 63.3559 206.841C59.2648 206.889 39.7399 215.289 48.9666 214.278C56.9526 213.404 62.2772 216.888 63.9412 218.74L65.5625 225.08C65.7355 225.756 66.3447 226.229 67.0427 226.229Z" fill="#2c2c2c"/>
<path d="M150.551 225.792C151.268 225.792 151.907 225.341 152.149 224.666L154.143 219.093C155.918 217.556 161.33 214.943 168.783 216.789C177.398 218.923 159.836 208.479 155.986 207.921C155.628 207.869 155.156 207.738 154.945 207.444L151.746 203L148.137 206.976C147.892 207.246 147.403 207.32 147.039 207.324C143.142 207.37 124.544 215.37 133.333 214.408C140.939 213.575 146.011 216.894 147.596 218.657L149.141 224.697C149.305 225.341 149.886 225.792 150.551 225.792Z" fill="#2c2c2c"/>
<path d="M79.1796 197.856C79.993 197.856 80.7187 197.345 80.9927 196.58L83.2555 190.257C85.2685 188.513 91.4083 185.548 99.8639 187.643C109.638 190.064 89.7141 178.216 85.346 177.583C84.9397 177.524 84.4046 177.375 84.1647 177.042L80.5358 172L76.4416 176.51C76.1636 176.817 75.6093 176.901 75.1956 176.905C70.7747 176.957 49.6757 186.034 59.6462 184.942C68.2761 183.997 74.03 187.762 75.8281 189.763L77.5802 196.614C77.767 197.345 78.4254 197.856 79.1796 197.856Z" fill="#2c2c2c"/>
<path d="M138.18 197.856C138.993 197.856 139.719 197.345 139.993 196.58L142.256 190.257C144.269 188.513 150.408 185.548 158.864 187.643C168.638 190.064 148.714 178.216 144.346 177.583C143.94 177.524 143.405 177.375 143.165 177.042L139.536 172L135.442 176.51C135.164 176.817 134.609 176.901 134.196 176.905C129.775 176.957 108.676 186.034 118.646 184.942C127.276 183.997 133.03 187.762 134.828 189.763L136.58 196.614C136.767 197.345 137.425 197.856 138.18 197.856Z" fill="#2c2c2c"/>
<path d="M138.666 159.765C139.13 159.765 139.545 159.474 139.701 159.036L140.993 155.426C142.143 154.43 145.649 152.737 150.478 153.933C156.059 155.316 144.682 148.55 142.187 148.188C141.955 148.154 141.65 148.069 141.513 147.879L139.44 145L137.102 147.576C136.943 147.751 136.627 147.798 136.391 147.801C133.866 147.831 121.817 153.014 127.511 152.391C132.439 151.851 135.725 154.001 136.752 155.144L137.752 159.056C137.859 159.474 138.235 159.765 138.666 159.765Z" fill="#2c2c2c"/>
<path d="M108.717 150.494C109.11 150.494 109.461 150.247 109.593 149.877L110.687 146.822C111.659 145.979 114.626 144.547 118.712 145.559C123.435 146.729 113.807 141.004 111.697 140.698C111.5 140.669 111.242 140.597 111.126 140.436L109.373 138L107.394 140.179C107.26 140.327 106.992 140.368 106.792 140.37C104.656 140.395 94.4609 144.781 99.2787 144.254C103.449 143.797 106.229 145.616 107.098 146.583L107.944 149.894C108.035 150.247 108.353 150.494 108.717 150.494Z" fill="#2c2c2c"/>
<path d="M79.6658 158.765C80.1303 158.765 80.5447 158.474 80.7012 158.036L81.9934 154.426C83.1429 153.43 86.6491 151.737 91.4777 152.933C97.0591 154.316 85.6816 147.55 83.1872 147.188C82.9551 147.154 82.6495 147.069 82.5126 146.879L80.4402 144L78.1023 146.576C77.9435 146.751 77.6269 146.798 77.3907 146.801C74.8661 146.831 62.8174 152.014 68.5112 151.391C73.4393 150.851 76.7251 153.001 77.7519 154.144L78.7524 158.056C78.8591 158.474 79.2351 158.765 79.6658 158.765Z" fill="#2c2c2c"/>
<path d="M91.2301 130.926C91.6052 130.926 91.9399 130.69 92.0663 130.337L93.11 127.421C94.0385 126.617 96.8704 125.249 100.77 126.215C105.278 127.332 96.0889 121.867 94.0742 121.575C93.8868 121.548 93.64 121.479 93.5294 121.325L91.8556 119L89.9672 121.08C89.8389 121.222 89.5833 121.26 89.3925 121.263C87.3534 121.286 77.6218 125.473 82.2205 124.969C86.201 124.534 88.8548 126.27 89.6842 127.193L90.4923 130.353C90.5785 130.69 90.8822 130.926 91.2301 130.926Z" fill="#2c2c2c"/>
<path d="M130.23 130.926C130.605 130.926 130.94 130.69 131.066 130.337L132.11 127.421C133.038 126.617 135.87 125.249 139.77 126.215C144.278 127.332 135.089 121.867 133.074 121.575C132.887 121.548 132.64 121.479 132.529 121.325L130.856 119L128.967 121.08C128.839 121.222 128.583 121.26 128.392 121.263C126.353 121.286 116.622 125.473 121.221 124.969C125.201 124.534 127.855 126.27 128.684 127.193L129.492 130.353C129.579 130.69 129.882 130.926 130.23 130.926Z" fill="#2c2c2c"/>
<path d="M121.256 97C121.597 97 121.903 96.7902 122.026 96.4721L122.957 94.0611C123.797 93.3865 126.359 92.2399 129.887 93.05C133.959 93.9847 125.68 89.4198 123.838 89.1604C123.66 89.1353 123.432 89.0734 123.322 88.9313L121.822 87L120.128 88.7296C120.001 88.8591 119.764 88.8942 119.583 88.8973C117.717 88.9297 108.951 92.4268 113.104 92.0054C116.706 91.6399 119.107 93.0961 119.857 93.8699L120.579 96.4843C120.663 96.789 120.94 97 121.256 97Z" fill="#2c2c2c"/>
<path d="M98.2558 96C98.5968 96 98.9027 95.7902 99.0256 95.4721L99.9567 93.0611C100.797 92.3865 103.359 91.2399 106.888 92.05C110.959 92.9847 102.68 88.4198 100.838 88.1604C100.66 88.1353 100.432 88.0734 100.322 87.9313L98.8217 86L97.1276 87.7296C97.0008 87.8591 96.7645 87.8942 96.5833 87.8973C94.7172 87.9297 85.9509 91.4268 90.1043 91.0054C93.7056 90.6399 96.1068 92.0961 96.8572 92.8699L97.5786 95.4843C97.6626 95.789 97.9397 96 98.2558 96Z" fill="#2c2c2c"/>
<path d="M108.922 124.556C109.726 124.556 110.443 124.05 110.714 123.294L112.95 117.045C114.94 115.321 121.008 112.391 129.365 114.461C139.025 116.854 119.333 105.144 115.016 104.518C114.615 104.459 114.086 104.313 113.849 103.983L110.262 99L106.215 103.458C105.941 103.761 105.393 103.844 104.984 103.848C100.615 103.9 79.761 112.87 89.6155 111.791C98.1449 110.858 103.832 114.579 105.609 116.556L107.341 123.328C107.525 124.05 108.176 124.556 108.922 124.556Z" fill="#2c2c2c"/>
<path d="M109.076 87C109.665 87 110.19 86.6286 110.386 86.0731L112.03 81.4161C113.489 80.1344 117.939 77.9558 124.068 79.4949C131.001 81.2362 117.316 72.9336 113.762 72.143C113.363 72.0541 112.806 71.8697 112.569 71.5358L110.059 68L107.232 71.1572C106.957 71.4646 106.377 71.581 105.966 71.6161C102.339 71.9251 87.8462 78.2952 94.918 77.5102C101.173 76.8159 105.343 79.5826 106.647 81.0527L107.92 86.0991C108.053 86.6288 108.53 87 109.076 87Z" fill="#2c2c2c"/>
<path d="M89.7943 144.086C90.0802 144.086 90.3352 143.907 90.4315 143.638L91.2267 141.416C91.9341 140.803 94.0917 139.761 97.0632 140.497C100.498 141.348 93.4963 137.185 91.9613 136.962C91.8185 136.941 91.6305 136.889 91.5462 136.772L90.2709 135L88.8321 136.585C88.7344 136.693 88.5396 136.722 88.3943 136.724C86.8407 136.742 79.4261 139.932 82.9299 139.548C85.9626 139.216 87.9846 140.539 88.6166 141.242L89.2323 143.65C89.2979 143.907 89.5293 144.086 89.7943 144.086Z" fill="#2c2c2c"/>
<path d="M127.794 145.086C128.08 145.086 128.335 144.907 128.431 144.638L129.227 142.416C129.934 141.803 132.092 140.761 135.063 141.497C138.498 142.348 131.496 138.185 129.961 137.962C129.819 137.941 129.63 137.889 129.546 137.772L128.271 136L126.832 137.585C126.734 137.693 126.54 137.722 126.394 137.724C124.841 137.742 117.426 140.932 120.93 140.548C123.963 140.216 125.985 141.539 126.617 142.242L127.232 144.65C127.298 144.907 127.529 145.086 127.794 145.086Z" fill="#2c2c2c"/>
<path d="M111.357 180.395C112.251 180.395 113.047 179.834 113.348 178.993L115.833 172.05C118.044 170.135 124.787 166.879 134.072 169.179C144.806 171.838 122.926 158.827 118.129 158.131C117.683 158.066 117.095 157.903 116.832 157.537L112.847 152L108.351 156.953C108.045 157.29 107.436 157.382 106.982 157.387C102.127 157.444 78.9566 167.412 89.9061 166.213C99.3833 165.175 105.702 169.31 107.677 171.507L109.601 179.031C109.806 179.834 110.529 180.395 111.357 180.395Z" fill="#2c2c2c"/>
<path d="M101.846 67C102.06 67 102.25 66.8646 102.321 66.6625L102.92 64.9428C103.451 64.4706 105.069 63.6679 107.297 64.235C109.665 64.8374 105.421 62.1765 103.824 61.6089C103.541 61.508 103.125 61.3151 102.952 61.0683L102.203 60L101.367 60.9458C101.166 61.1734 100.725 61.3152 100.428 61.3778C98.7741 61.7263 94.2849 63.7751 96.6974 63.5038C98.972 63.2479 100.488 64.2673 100.962 64.8089L101.426 66.6722C101.474 66.8648 101.647 67 101.846 67Z" fill="#2c2c2c"/>
<path d="M115.846 67C116.06 67 116.25 66.8646 116.321 66.6625L116.92 64.9428C117.451 64.4706 119.069 63.6679 121.297 64.235C123.665 64.8374 119.42 62.1765 117.824 61.6089C117.541 61.508 117.125 61.3151 116.952 61.0683L116.203 60L115.367 60.9458C115.166 61.1734 114.725 61.3152 114.428 61.3778C112.774 61.7263 108.285 63.7751 110.697 63.5038C112.972 63.2479 114.488 64.2673 114.962 64.8089L115.426 66.6722C115.474 66.8648 115.647 67 115.846 67Z" fill="#2c2c2c"/>
<path d="M108.846 57C109.06 57 109.25 56.8646 109.321 56.6625L109.92 54.9428C110.451 54.4706 112.069 53.6679 114.297 54.235C116.665 54.8374 112.42 52.1765 110.824 51.6089C110.541 51.508 110.125 51.3151 109.952 51.0683L109.203 50L108.367 50.9458C108.166 51.1734 107.725 51.3152 107.428 51.3778C105.774 51.7263 101.285 53.7751 103.697 53.5038C105.972 53.2479 107.488 54.2673 107.962 54.8089L108.426 56.6722C108.474 56.8648 108.647 57 108.846 57Z" fill="#2c2c2c"/>
<path d="M108.846 135C109.06 135 109.25 134.865 109.321 134.662L109.92 132.943C110.451 132.471 112.069 131.668 114.297 132.235C116.665 132.837 112.42 130.177 110.824 129.609C110.541 129.508 110.125 129.315 109.952 129.068L109.203 128L108.367 128.946C108.166 129.173 107.725 129.315 107.428 129.378C105.774 129.726 101.285 131.775 103.697 131.504C105.972 131.248 107.488 132.267 107.962 132.809L108.426 134.672C108.474 134.865 108.647 135 108.846 135Z" fill="#2c2c2c"/>
<path d="M120.846 156C121.06 156 121.25 155.865 121.321 155.662L121.92 153.943C122.451 153.471 124.069 152.668 126.297 153.235C128.665 153.837 124.421 151.177 122.824 150.609C122.541 150.508 122.125 150.315 121.952 150.068L121.203 149L120.367 149.946C120.166 150.173 119.725 150.315 119.428 150.378C117.774 150.726 113.285 152.775 115.697 152.504C117.972 152.248 119.488 153.267 119.962 153.809L120.426 155.672C120.474 155.865 120.647 156 120.846 156Z" fill="#2c2c2c"/>
<path d="M98.8457 156C99.0598 156 99.2504 155.865 99.3208 155.662L99.92 153.943C100.451 153.471 102.069 152.668 104.297 153.235C106.665 153.837 102.421 151.177 100.824 150.609C100.541 150.508 100.125 150.315 99.9518 150.068L99.2032 149L98.3673 149.946C98.1662 150.173 97.7248 150.315 97.4276 150.378C95.7741 150.726 91.2849 152.775 93.6974 152.504C95.972 152.248 97.4885 153.267 97.9624 153.809L98.4263 155.672C98.4742 155.865 98.6472 156 98.8457 156Z" fill="#2c2c2c"/>
<path d="M111.846 192C112.06 192 112.25 191.865 112.321 191.662L112.92 189.943C113.451 189.471 115.069 188.668 117.297 189.235C119.665 189.837 115.42 187.177 113.824 186.609C113.541 186.508 113.125 186.315 112.952 186.068L112.203 185L111.367 185.946C111.166 186.173 110.725 186.315 110.428 186.378C108.774 186.726 104.285 188.775 106.697 188.504C108.972 188.248 110.488 189.267 110.962 189.809L111.426 191.672C111.474 191.865 111.647 192 111.846 192Z" fill="#2c2c2c"/>
<path d="M95.7943 200.167C96.0797 200.167 96.3338 199.986 96.4277 199.717L97.2267 197.424C97.9341 196.794 100.092 195.724 103.063 196.48C106.22 197.283 100.561 193.735 98.4327 192.978C98.0541 192.844 97.4996 192.587 97.2691 192.258L96.2709 190.833L95.1564 192.094C94.8883 192.398 94.2998 192.587 93.9035 192.67C91.6988 193.135 85.7132 195.867 88.9299 195.505C91.9626 195.164 93.9846 196.523 94.6166 197.245L95.235 199.729C95.299 199.986 95.5296 200.167 95.7943 200.167Z" fill="#2c2c2c"/>
<path d="M126.794 201.333C127.08 201.333 127.334 201.153 127.428 200.883L128.227 198.59C128.934 197.961 131.092 196.891 134.063 197.647C137.22 198.45 131.561 194.902 129.433 194.145C129.054 194.011 128.5 193.753 128.269 193.424L127.271 192L126.156 193.261C125.888 193.565 125.3 193.754 124.904 193.837C122.699 194.302 116.713 197.033 119.93 196.672C122.963 196.331 124.985 197.69 125.617 198.412L126.235 200.896C126.299 201.153 126.53 201.333 126.794 201.333Z" fill="#2c2c2c"/>
</svg>
