<svg width="841" height="214" viewBox="0 0 841 214" fill="none" xmlns="http://www.w3.org/2000/svg">
<path d="M59.5947 170.776C47.9033 170.776 36.5818 169 25.6303 165.448C14.8269 161.748 6.31727 157.013 0.101562 151.241L8.31517 133.926C14.2349 139.253 21.7825 143.619 30.9581 147.023C40.2816 150.279 49.8272 151.907 59.5947 151.907C72.4701 151.907 82.0896 149.761 88.4533 145.469C94.817 141.029 97.9989 135.184 97.9989 127.932C97.9989 122.604 96.223 118.312 92.6711 115.057C89.2673 111.653 84.9755 109.063 79.7958 107.287C74.764 105.511 67.5863 103.513 58.2628 101.293C46.5713 98.4814 37.0998 95.6696 29.8481 92.8577C22.7445 90.0458 16.6028 85.754 11.423 79.9823C6.39126 74.0626 3.87538 66.145 3.87538 56.2295C3.87538 47.9419 6.02128 40.4682 10.3131 33.8085C14.7529 27.1488 21.4125 21.8211 30.2921 17.8253C39.1717 13.8295 50.1972 11.8316 63.3685 11.8316C72.5441 11.8316 81.5717 13.0155 90.4512 15.3834C99.3308 17.7513 106.952 21.1551 113.316 25.5949L105.991 43.3541C99.4788 39.2103 92.5231 36.1024 85.1235 34.0305C77.7238 31.8106 70.4722 30.7007 63.3685 30.7007C50.7891 30.7007 41.3176 32.9946 34.9539 37.5824C28.7382 42.1701 25.6303 48.0898 25.6303 55.3415C25.6303 60.6692 27.4063 65.035 30.9581 68.4389C34.5099 71.6947 38.8757 74.2846 44.0555 76.2085C49.3832 77.9844 56.5609 79.9083 65.5884 81.9802C77.2799 84.7921 86.6774 87.604 93.7811 90.4158C100.885 93.2277 106.952 97.5195 111.984 103.291C117.164 109.063 119.754 116.833 119.754 126.6C119.754 134.74 117.534 142.213 113.094 149.021C108.654 155.681 101.921 161.008 92.8931 165.004C83.8656 168.852 72.7661 170.776 59.5947 170.776Z" fill="#2C2C2C"/>
<path d="M206.572 162.118C203.465 164.782 199.617 166.854 195.029 168.334C190.441 169.666 185.705 170.332 180.822 170.332C168.982 170.332 159.807 167.15 153.295 160.786C146.783 154.423 143.528 145.321 143.528 133.482V25.5949H164.839V51.3457H198.581V68.8829H164.839V132.594C164.839 138.958 166.392 143.841 169.5 147.245C172.756 150.649 177.344 152.351 183.264 152.351C189.775 152.351 195.325 150.501 199.913 146.801L206.572 162.118Z" fill="#2C2C2C"/>
<path d="M334.872 51.3457V169H314.449V150.353C309.713 156.865 303.719 161.822 296.468 165.226C289.216 168.63 281.225 170.332 272.493 170.332C261.097 170.332 250.886 167.816 241.858 162.784C232.831 157.753 225.727 150.723 220.547 141.695C215.516 132.52 213 122.012 213 110.173C213 98.3334 215.516 87.8999 220.547 78.8724C225.727 69.8448 232.831 62.8151 241.858 57.7834C250.886 52.7516 261.097 50.2357 272.493 50.2357C280.929 50.2357 288.698 51.8637 295.802 55.1195C302.905 58.2274 308.825 62.8891 313.561 69.1048V51.3457H334.872ZM274.269 151.685C281.669 151.685 288.402 149.983 294.47 146.579C300.538 143.027 305.273 138.144 308.677 131.928C312.081 125.564 313.783 118.312 313.783 110.173C313.783 102.033 312.081 94.8556 308.677 88.6399C305.273 82.2762 300.538 77.3924 294.47 73.9886C288.402 70.5848 281.669 68.8829 274.269 68.8829C266.721 68.8829 259.914 70.5848 253.846 73.9886C247.926 77.3924 243.19 82.2762 239.639 88.6399C236.235 94.8556 234.533 102.033 234.533 110.173C234.533 118.312 236.235 125.564 239.639 131.928C243.19 138.144 247.926 143.027 253.846 146.579C259.914 149.983 266.721 151.685 274.269 151.685Z" fill="#2C2C2C"/>
<path d="M391.177 71.1027C394.877 64.2951 400.353 59.1153 407.605 55.5635C414.856 52.0117 423.662 50.2357 434.021 50.2357V70.8808C432.838 70.7328 431.21 70.6588 429.138 70.6588C417.594 70.6588 408.493 74.1366 401.833 81.0923C395.321 87.8999 392.065 97.6675 392.065 110.395V169H370.754V51.3457H391.177V71.1027Z" fill="#2C2C2C"/>
<path d="M491.588 170.332C480.192 170.332 471.387 167.224 465.171 161.008C458.955 154.645 455.848 145.765 455.848 134.37V4.28394H477.159V132.594C477.159 138.958 478.638 143.841 481.598 147.245C484.706 150.649 489.294 152.351 495.362 152.351C499.061 152.351 502.539 151.611 505.795 150.131L506.905 167.668C502.021 169.444 496.916 170.332 491.588 170.332Z" fill="#2C2C2C"/>
<path d="M522.73 51.3457H544.041V169H522.73V51.3457ZM533.386 28.7028C529.242 28.7028 525.764 27.3708 522.952 24.707C520.289 22.0431 518.957 18.7872 518.957 14.9394C518.957 11.0916 520.289 7.83577 522.952 5.1719C525.764 2.36003 529.242 0.954102 533.386 0.954102C537.53 0.954102 540.934 2.28604 543.597 4.94991C546.409 7.46579 547.815 10.6476 547.815 14.4955C547.815 18.4913 546.409 21.8951 543.597 24.707C540.934 27.3708 537.53 28.7028 533.386 28.7028Z" fill="#2C2C2C"/>
<path d="M643.115 50.2357C658.062 50.2357 669.901 54.6015 678.633 63.3331C687.513 71.9167 691.952 84.5701 691.952 101.293V169H670.641V103.735C670.641 92.3397 667.903 83.7561 662.428 77.9844C656.952 72.2127 649.108 69.3268 638.897 69.3268C627.353 69.3268 618.252 72.7307 611.592 79.5383C604.932 86.198 601.603 95.8176 601.603 108.397V169H580.292V51.3457H600.715V69.1048C605.006 63.0371 610.778 58.3754 618.03 55.1195C625.429 51.8637 633.791 50.2357 643.115 50.2357Z" fill="#2C2C2C"/>
<path d="M840.151 51.3457V153.017C840.151 173.588 835.045 188.757 824.834 198.525C814.622 208.44 799.379 213.398 779.104 213.398C768.004 213.398 757.423 211.844 747.359 208.736C737.296 205.776 729.156 201.485 722.941 195.861L733.152 179.434C738.628 184.169 745.362 187.869 753.353 190.533C761.493 193.345 769.854 194.751 778.438 194.751C792.201 194.751 802.339 191.495 808.851 184.983C815.51 178.472 818.84 168.556 818.84 155.237V145.913C813.808 151.981 807.593 156.569 800.193 159.677C792.941 162.636 785.024 164.116 776.44 164.116C765.193 164.116 754.981 161.748 745.806 157.013C736.778 152.129 729.674 145.395 724.495 136.812C719.315 128.08 716.725 118.164 716.725 107.065C716.725 95.9656 719.315 86.124 724.495 77.5404C729.674 68.8089 736.778 62.0752 745.806 57.3394C754.981 52.6036 765.193 50.2357 776.44 50.2357C785.32 50.2357 793.533 51.8637 801.081 55.1195C808.777 58.3754 815.066 63.1851 819.95 69.5488V51.3457H840.151ZM778.882 145.469C786.578 145.469 793.459 143.841 799.527 140.585C805.743 137.33 810.552 132.816 813.956 127.044C817.508 121.124 819.284 114.465 819.284 107.065C819.284 95.6696 815.51 86.494 807.963 79.5383C800.415 72.4347 790.721 68.8829 778.882 68.8829C766.895 68.8829 757.127 72.4347 749.579 79.5383C742.032 86.494 738.258 95.6696 738.258 107.065C738.258 114.465 739.96 121.124 743.364 127.044C746.915 132.816 751.725 137.33 757.793 140.585C764.009 143.841 771.038 145.469 778.882 145.469Z" fill="#2C2C2C"/>
</svg>
